<svg width="613" height="100" viewBox="0 0 613 100" fill="none" xmlns="http://www.w3.org/2000/svg">
<g clip-path="url(#clip0_186_2220)">
<path d="M103.371 48.1594L85.8014 45.9708C87.8488 44.7555 89.2204 42.5165 89.2204 39.9749C89.2204 36.1121 86.0838 32.9855 82.231 32.9855C78.3783 32.9855 75.2417 36.1121 75.2417 39.9749C75.2417 41.876 75.993 43.5856 77.2285 44.8412L56.4823 42.108L59.4172 19.8288C60.6931 21.6744 62.806 22.8898 65.2115 22.8898C69.0642 22.8898 72.2008 19.7632 72.2008 15.9004C72.2008 12.0376 69.0642 8.91101 65.2115 8.91101C63.4565 8.91101 61.8529 9.5565 60.6275 10.6306L61.9134 0.918116L95.2617 0.0356195C101.585 -0.130794 106.381 4.91204 105.968 11.2509L103.371 48.1594Z" fill="#FB4903"/>
<path d="M102.866 63.143L101.55 89.7675C101.182 95.4458 96.0687 100.01 90.1585 99.9894L50.6378 99.8835L52.5894 85.0575C51.4094 85.9854 49.9167 86.5351 48.303 86.5351C44.4402 86.5351 41.3136 83.4085 41.3136 79.5457C41.3136 75.6829 44.4402 72.5664 48.303 72.5664C50.5823 72.5664 52.5995 73.6557 53.8652 75.345L56.2807 57.0042L77.027 59.7374C75.7915 58.4818 75.0401 56.7722 75.0401 54.8711C75.0401 51.0083 78.1667 47.8817 82.0295 47.8817C85.8923 47.8817 89.0188 51.0083 89.0188 54.8711C89.0188 57.4177 87.6472 59.6517 85.5998 60.867C110.484 64.1471 102.866 63.143 102.866 63.143Z" fill="#573CF9"/>
<path d="M49.4983 21.9716C53.351 21.9716 56.4877 18.8451 56.4877 14.9823C56.4877 11.1295 53.351 7.9929 49.4983 7.9929C47.7434 7.9929 46.1398 8.63334 44.9144 9.71251L46.2003 0L14.0925 0.832068C8.07135 0.993439 3.21509 6.13209 3.21509 12.2793V32.6297L17.3514 35.26L17.6124 35.3599C15.7044 36.5405 14.3834 38.5891 14.2614 40.9914C14.0659 44.8392 17.0293 48.1304 20.8872 48.3264C24.7349 48.5218 28.0267 45.5484 28.2221 41.7006C28.3112 39.9479 27.7529 38.3139 26.7373 37.0353L36.3721 38.8123L36.3716 38.7921L40.9708 39.6468L43.7041 18.9106C44.9799 20.7563 47.0929 21.9716 49.4983 21.9716Z" fill="#0F7173"/>
<path d="M40.966 52.9699L24.8107 50.2776C25.7148 51.5194 26.204 53.0635 26.1203 54.7126C25.9248 58.5603 22.6331 61.5338 18.7853 61.3383C14.9274 61.1424 11.964 57.8511 12.1595 54.0034C12.2722 51.7842 13.408 49.8669 15.0846 48.6568L3.22034 46.6797V87.3368C3.22034 92.8587 7.77402 97.3166 13.422 97.3267L35.1213 97.3922L37.0729 82.5663C35.8929 83.4942 34.4002 84.0438 32.7865 84.0438C28.9237 84.0438 25.7971 80.9072 25.7971 77.0545C25.7971 73.2017 28.9237 70.0752 32.7865 70.0752C35.0659 70.0752 37.083 71.1644 38.3487 72.8538L40.966 52.9699Z" fill="#FFB901"/>
</g>
<path d="M160.158 100C157.716 100 155.274 99.4573 152.831 98.3718C150.479 97.3768 148.399 95.839 146.59 93.7585C144.871 91.5875 143.605 88.919 142.79 85.7531L129.9 30.9362H147.947L159.615 82.0896C159.615 82.18 159.615 82.2705 159.615 82.3609C159.706 82.3609 159.842 82.3609 160.023 82.3609C160.203 82.3609 160.294 82.3609 160.294 82.3609C160.384 82.2705 160.384 82.2252 160.294 82.2252L170.199 43.2836C171.556 38.4894 173.591 34.9163 176.305 32.5645C179.018 30.1221 182.456 28.9009 186.617 28.9009C190.868 28.9009 194.306 30.0769 196.929 32.4288C199.643 34.7806 201.587 38.3085 202.763 43.0122L212.668 82.2252C212.759 82.3157 212.804 82.4062 212.804 82.4966C212.804 82.4966 212.895 82.4966 213.075 82.4966C213.347 82.4966 213.482 82.4966 213.482 82.4966C213.482 82.4062 213.482 82.2705 213.482 82.0896L224.744 30.9362H242.519L230.172 85.7531C229.448 88.919 228.182 91.5875 226.373 93.7585C224.654 95.839 222.573 97.3768 220.131 98.3718C217.779 99.4573 215.382 100 212.94 100C209.05 100 205.658 98.8241 202.763 96.4722C199.959 94.1203 197.969 90.5473 196.793 85.7531L186.752 45.7259C186.843 45.6355 186.752 45.5902 186.481 45.5902C186.3 45.5902 186.21 45.6355 186.21 45.7259C186.3 45.7259 186.345 45.7259 186.345 45.7259L176.305 85.7531C175.129 90.5473 173.094 94.1203 170.199 96.4722C167.395 98.8241 164.048 100 160.158 100Z" fill="#161616"/>
<path d="M285.052 99.8643C278.087 99.8643 271.8 98.3718 266.192 95.3867C260.674 92.3112 256.332 88.1049 253.166 82.768C250 77.3406 248.417 71.0538 248.417 63.9077C248.417 57.4853 249.864 51.6056 252.759 46.2687C255.744 40.8412 259.86 36.5446 265.106 33.3786C270.353 30.1221 276.414 28.4939 283.288 28.4939C290.434 28.4939 296.495 30.0769 301.47 33.2429C306.445 36.3184 310.244 40.4342 312.868 45.5902C315.581 50.7463 316.938 56.3998 316.938 62.5509V68.2497H263.75L266.735 63.5007C266.554 67.2999 267.187 70.692 268.634 73.6771C270.172 76.6621 272.298 79.014 275.011 80.7327C277.816 82.3609 281.117 83.175 284.916 83.175C288.535 83.175 291.791 82.3157 294.686 80.597C297.671 78.8783 299.932 76.4812 301.47 73.4057L316.26 80.8684C313.365 86.929 309.204 91.6328 303.777 94.9797C298.44 98.2361 292.198 99.8643 285.052 99.8643ZM267.82 57.5305H297.807C297.535 55.1787 296.721 53.0981 295.364 51.289C294.098 49.3894 292.424 47.9421 290.344 46.9471C288.263 45.8616 285.866 45.3189 283.153 45.3189C280.348 45.3189 277.861 45.8616 275.69 46.9471C273.609 48.0326 271.891 49.5251 270.534 51.4247C269.267 53.2338 268.363 55.2691 267.82 57.5305Z" fill="#161616"/>
<path d="M333.761 0H353.028V98.1004H333.761V0Z" fill="#161616"/>
<path d="M404.966 81.2754C408.313 81.2754 411.072 80.4161 413.243 78.6974C415.504 76.8883 417.178 74.5364 418.263 71.6418C419.349 68.6567 419.891 65.4455 419.891 62.0081V30.9362H439.159V64.3148C439.159 70.9181 437.847 76.9335 435.224 82.3609C432.691 87.6979 428.892 91.9494 423.826 95.1153C418.761 98.2813 412.474 99.8643 404.966 99.8643C397.549 99.8643 391.307 98.2813 386.242 95.1153C381.176 91.9494 377.332 87.6527 374.708 82.2252C372.175 76.7978 370.909 70.8277 370.909 64.3148V30.9362H390.176V62.1438C390.176 65.4907 390.719 68.6567 391.805 71.6418C392.89 74.5364 394.518 76.8883 396.689 78.6974C398.951 80.4161 401.71 81.2754 404.966 81.2754Z" fill="#161616"/>
<path d="M487.514 100C480.639 100 474.443 98.417 468.925 95.251C463.497 91.9946 459.155 87.6979 455.899 82.3609C452.733 76.9335 451.15 71.0086 451.15 64.5862C451.15 57.621 452.642 51.4699 455.628 46.133C458.613 40.7056 462.774 36.4993 468.111 33.5142C473.448 30.5292 479.553 29.0366 486.428 29.0366C491.313 29.0366 495.836 30.1221 499.997 32.2931C504.158 34.464 507.505 37.3587 510.037 40.9769C512.661 44.5952 513.972 48.4849 513.972 52.6459L504.61 51.0176L504.746 0H524.013V64.5862C524.013 71.3704 522.43 77.431 519.264 82.768C516.098 88.1049 511.756 92.3112 506.238 95.3867C500.72 98.4622 494.479 100 487.514 100ZM487.514 81.8182C490.86 81.8182 493.8 81.0493 496.333 79.5115C498.956 77.8833 500.992 75.7576 502.439 73.1343C503.977 70.5111 504.746 67.6617 504.746 64.5862C504.746 61.4202 503.977 58.5256 502.439 55.9023C500.992 53.1886 498.956 51.0629 496.333 49.5251C493.8 47.9873 490.86 47.2185 487.514 47.2185C484.257 47.2185 481.317 47.9873 478.694 49.5251C476.161 51.0629 474.126 53.1886 472.588 55.9023C471.141 58.5256 470.417 61.4202 470.417 64.5862C470.417 67.6617 471.141 70.5111 472.588 73.1343C474.126 75.7576 476.161 77.8833 478.694 79.5115C481.317 81.0493 484.257 81.8182 487.514 81.8182Z" fill="#161616"/>
<path d="M573.112 99.8643C566.237 99.8643 560.041 98.2813 554.523 95.1153C549.096 91.8589 544.754 87.5622 541.497 82.2252C538.331 76.7978 536.748 70.8277 536.748 64.3148C536.748 57.8019 538.331 51.877 541.497 46.54C544.754 41.2031 549.141 36.9516 554.659 33.7856C560.177 30.5292 566.328 28.9009 573.112 28.9009C580.077 28.9009 586.273 30.5292 591.701 33.7856C597.219 36.9516 601.56 41.2483 604.726 46.6757C607.983 52.0127 609.611 57.8924 609.611 64.3148C609.611 70.8277 607.983 76.7978 604.726 82.2252C601.56 87.5622 597.219 91.8589 591.701 95.1153C586.183 98.2813 579.987 99.8643 573.112 99.8643ZM573.112 81.8182C576.459 81.8182 579.399 81.0493 581.931 79.5115C584.555 77.8833 586.59 75.7576 588.037 73.1343C589.575 70.5111 590.344 67.6165 590.344 64.4505C590.344 61.2845 589.575 58.3899 588.037 55.7666C586.59 53.1434 584.555 51.0629 581.931 49.5251C579.399 47.8969 576.459 47.0828 573.112 47.0828C569.855 47.0828 566.916 47.8969 564.292 49.5251C561.76 51.0629 559.724 53.1434 558.186 55.7666C556.739 58.3899 556.016 61.2845 556.016 64.4505C556.016 67.6165 556.739 70.5111 558.186 73.1343C559.724 75.7576 561.76 77.8833 564.292 79.5115C566.916 81.0493 569.855 81.8182 573.112 81.8182Z" fill="#161616"/>
<defs>
<clipPath id="clip0_186_2220">
<rect width="102.905" height="100" fill="white" transform="translate(3.08984)"/>
</clipPath>
</defs>
</svg>
